<mxfile host="Electron" modified="2024-02-04T12:43:57.811Z" agent="Mozilla/5.0 (Windows NT 10.0; Win64; x64) AppleWebKit/537.36 (KHTML, like Gecko) draw.io/23.0.2 Chrome/120.0.6099.109 Electron/28.1.0 Safari/537.36" etag="YxvvWfluhUl8xYqaBKmk" version="23.0.2" type="device">
  <diagram name="Page-1" id="NPHjwC79ZcieFAewdQ-f">
    <mxGraphModel dx="794" dy="511" grid="1" gridSize="10" guides="1" tooltips="1" connect="1" arrows="1" fold="1" page="1" pageScale="1" pageWidth="827" pageHeight="1169" math="0" shadow="0">
      <root>
        <mxCell id="0" />
        <mxCell id="1" parent="0" />
        <UserObject label="Site Member" type="externalEntity" source="" flow="Profile Information" placeholders="1" id="x5vMkq9RxhVoWxni3DNG-1">
          <mxCell style="shape=rectangle;whiteSpace=wrap;html=1;fillColor=#ffffff;strokeColor=#000000;align=center;verticalAlign=middle;fontColor=#232F3E;" vertex="1" parent="1">
            <mxGeometry width="95" height="35" as="geometry" />
          </mxCell>
        </UserObject>
        <UserObject label="Practitioner" type="externalEntity" source="" flow="Profile Information" placeholders="1" id="x5vMkq9RxhVoWxni3DNG-2">
          <mxCell style="shape=rectangle;whiteSpace=wrap;html=1;fillColor=#ffffff;strokeColor=#000000;align=center;verticalAlign=middle;fontColor=#232F3E;" vertex="1" parent="1">
            <mxGeometry x="5" y="65" width="85" height="35" as="geometry" />
          </mxCell>
        </UserObject>
        <UserObject label="Trainer" type="externalEntity" source="" flow="Profile Information, Class Information" placeholders="1" id="x5vMkq9RxhVoWxni3DNG-3">
          <mxCell style="shape=rectangle;whiteSpace=wrap;html=1;fillColor=#ffffff;strokeColor=#000000;align=center;verticalAlign=middle;fontColor=#232F3E;" vertex="1" parent="1">
            <mxGeometry x="15" y="130" width="65" height="35" as="geometry" />
          </mxCell>
        </UserObject>
        <UserObject label="Update Profile" type="process" source="1,2,3" flow="Profile Information" placeholders="1" id="x5vMkq9RxhVoWxni3DNG-4">
          <mxCell style="shape=ellipse;perimeter=ellipsePerimeter;whiteSpace=wrap;html=1;fillColor=#ffffff;strokeColor=#000000;align=center;verticalAlign=middle;fontColor=#232F3E;" vertex="1" parent="1">
            <mxGeometry x="220" y="65" width="105" height="35" as="geometry" />
          </mxCell>
        </UserObject>
        <UserObject label="Mark Profile as Private" type="process" source="1" flow="Profile Visibility" placeholders="1" id="x5vMkq9RxhVoWxni3DNG-5">
          <mxCell style="shape=ellipse;perimeter=ellipsePerimeter;whiteSpace=wrap;html=1;fillColor=#ffffff;strokeColor=#000000;align=center;verticalAlign=middle;fontColor=#232F3E;" vertex="1" parent="1">
            <mxGeometry x="200" width="145" height="35" as="geometry" />
          </mxCell>
        </UserObject>
        <UserObject label="List Upcoming Classes" type="process" source="3" flow="Class Information" placeholders="1" id="x5vMkq9RxhVoWxni3DNG-6">
          <mxCell style="shape=ellipse;perimeter=ellipsePerimeter;whiteSpace=wrap;html=1;fillColor=#ffffff;strokeColor=#000000;align=center;verticalAlign=middle;fontColor=#232F3E;" vertex="1" parent="1">
            <mxGeometry x="195" y="130" width="155" height="35" as="geometry" />
          </mxCell>
        </UserObject>
        <UserObject label="Profile Pages" type="dataStore" source="4,5" flow="Profile Information, Profile Visibility" placeholders="1" id="x5vMkq9RxhVoWxni3DNG-7">
          <mxCell style="html=1;dashed=0;whiteSpace=wrap;shape=partialRectangle;right=0;left=0;" vertex="1" parent="1">
            <mxGeometry x="450" y="32.5" width="95" height="35" as="geometry" />
          </mxCell>
        </UserObject>
        <UserObject label="Class Details" type="dataStore" source="6" flow="Class Information" placeholders="1" id="x5vMkq9RxhVoWxni3DNG-8">
          <mxCell style="html=1;dashed=0;whiteSpace=wrap;shape=partialRectangle;right=0;left=0;" vertex="1" parent="1">
            <mxGeometry x="450" y="130" width="95" height="35" as="geometry" />
          </mxCell>
        </UserObject>
        <mxCell id="x5vMkq9RxhVoWxni3DNG-9" value="Profile Information" style="endArrow=blockThin;endFill=1;fontSize=11;orthogonal=1;noEdgeStyle=1;" edge="1" parent="1" source="x5vMkq9RxhVoWxni3DNG-1" target="x5vMkq9RxhVoWxni3DNG-4">
          <mxGeometry relative="1" as="geometry">
            <Array as="points">
              <mxPoint x="107" y="23.75" />
              <mxPoint x="183" y="74.16666666666667" />
            </Array>
          </mxGeometry>
        </mxCell>
        <mxCell id="x5vMkq9RxhVoWxni3DNG-10" value="Profile Information" style="endArrow=blockThin;endFill=1;fontSize=11;orthogonal=1;noEdgeStyle=1;" edge="1" parent="1" source="x5vMkq9RxhVoWxni3DNG-2" target="x5vMkq9RxhVoWxni3DNG-4">
          <mxGeometry relative="1" as="geometry">
            <Array as="points">
              <mxPoint x="107" y="82.5" />
              <mxPoint x="181" y="82.5" />
            </Array>
          </mxGeometry>
        </mxCell>
        <mxCell id="x5vMkq9RxhVoWxni3DNG-11" value="Profile Information" style="endArrow=blockThin;endFill=1;fontSize=11;orthogonal=1;noEdgeStyle=1;" edge="1" parent="1" source="x5vMkq9RxhVoWxni3DNG-3" target="x5vMkq9RxhVoWxni3DNG-4">
          <mxGeometry relative="1" as="geometry">
            <Array as="points">
              <mxPoint x="107" y="141.25" />
              <mxPoint x="183" y="90.83333333333333" />
            </Array>
          </mxGeometry>
        </mxCell>
        <mxCell id="x5vMkq9RxhVoWxni3DNG-12" value="Profile Visibility" style="endArrow=blockThin;endFill=1;fontSize=11;orthogonal=1;noEdgeStyle=1;" edge="1" parent="1" source="x5vMkq9RxhVoWxni3DNG-1" target="x5vMkq9RxhVoWxni3DNG-5">
          <mxGeometry relative="1" as="geometry">
            <Array as="points">
              <mxPoint x="107" y="11.25" />
              <mxPoint x="183" y="17.5" />
            </Array>
          </mxGeometry>
        </mxCell>
        <mxCell id="x5vMkq9RxhVoWxni3DNG-13" value="Class Information" style="endArrow=blockThin;endFill=1;fontSize=11;orthogonal=1;noEdgeStyle=1;" edge="1" parent="1" source="x5vMkq9RxhVoWxni3DNG-3" target="x5vMkq9RxhVoWxni3DNG-6">
          <mxGeometry relative="1" as="geometry">
            <Array as="points">
              <mxPoint x="107" y="153.75" />
              <mxPoint x="183" y="147.5" />
            </Array>
          </mxGeometry>
        </mxCell>
        <mxCell id="x5vMkq9RxhVoWxni3DNG-14" value="Profile Information, Profile Visibility" style="endArrow=blockThin;endFill=1;fontSize=11;orthogonal=1;noEdgeStyle=1;" edge="1" parent="1" source="x5vMkq9RxhVoWxni3DNG-4" target="x5vMkq9RxhVoWxni3DNG-7">
          <mxGeometry relative="1" as="geometry">
            <Array as="points">
              <mxPoint x="362" y="82.5" />
              <mxPoint x="438" y="56.25" />
            </Array>
          </mxGeometry>
        </mxCell>
        <mxCell id="x5vMkq9RxhVoWxni3DNG-15" value="Profile Information, Profile Visibility" style="endArrow=blockThin;endFill=1;fontSize=11;orthogonal=1;noEdgeStyle=1;" edge="1" parent="1" source="x5vMkq9RxhVoWxni3DNG-5" target="x5vMkq9RxhVoWxni3DNG-7">
          <mxGeometry relative="1" as="geometry">
            <Array as="points">
              <mxPoint x="362" y="17.5" />
              <mxPoint x="438" y="43.75" />
            </Array>
          </mxGeometry>
        </mxCell>
        <mxCell id="x5vMkq9RxhVoWxni3DNG-16" value="Class Information" style="endArrow=blockThin;endFill=1;fontSize=11;orthogonal=1;noEdgeStyle=1;" edge="1" parent="1" source="x5vMkq9RxhVoWxni3DNG-6" target="x5vMkq9RxhVoWxni3DNG-8">
          <mxGeometry relative="1" as="geometry">
            <Array as="points">
              <mxPoint x="362" y="147.5" />
              <mxPoint x="438" y="147.5" />
            </Array>
          </mxGeometry>
        </mxCell>
      </root>
    </mxGraphModel>
  </diagram>
</mxfile>
